<?xml version="1.0" encoding="utf-8"?>
<!-- Generator: Adobe Illustrator 22.1.0, SVG Export Plug-In . SVG Version: 6.00 Build 0)  -->
<svg version="1.1" id="Layer_1" xmlns="http://www.w3.org/2000/svg" xmlns:xlink="http://www.w3.org/1999/xlink" x="0px" y="0px"
	 viewBox="0 0 647.2 145.6" style="enable-background:new 0 0 647.2 145.6;" xml:space="preserve">
<style type="text/css">
	.st0{fill:#ffffff;}
	.st1{fill-rule:evenodd;clip-rule:evenodd;fill:#ffffff;}
</style>
<g>
	<g>
		<g>
			<path class="st0" d="M385.3,63.7c2.6-12.6,3.8-15.7,6.4-18.2c2-2,4.3-2.9,7.7-2.9c3,0,5.4,0.9,6.9,2.7c1.1,1.4,1.7,3.7,1.7,5.8
				c0,0.9,0,1.6-0.2,2.7h-6.2c0.2-0.9,0.2-1.6,0.2-2.3c0-1.9-0.6-3.4-2.9-3.4c-1.3,0-2.2,0.4-3,1.2c-1.6,1.7-2.4,4.2-4.5,14.4
				c-1,5.3-1.7,9.6-1.7,12.1c0,2.3,0.9,3.5,3,3.5c1.5,0,2.4-0.6,3.2-1.5c0.9-1.1,1.5-2.4,1.9-4.2h6.2c-0.9,4.2-2.2,6.8-4.5,8.9
				c-1.8,1.6-3.9,2.4-7.4,2.4c-3.6,0-5.8-1.2-7.1-3.3c-1-1.7-1.4-3.2-1.4-5.7S384.2,69.3,385.3,63.7z"/>
			<path class="st0" d="M418.2,48.5h-6.6l1.1-5.5H432l-1.1,5.5h-6.6l-7.1,35.9H411L418.2,48.5z"/>
			<path class="st0" d="M436.7,43h9.4c3.3,0,5.2,0.6,6.7,2.2c1.4,1.4,1.9,3.4,1.9,5.6c0,1.5-0.1,3-0.5,4.8
				c-2,10.2-5.9,12.6-12.2,12.6h-4.2l-3.2,16.2h-6.2L436.7,43z M442.2,62.7c3.2,0,4.7-1.9,5.8-7.1c0.2-1.2,0.5-2.6,0.5-3.6
				c0-2.3-0.9-3.5-3.5-3.5h-3.2l-2.8,14.2H442.2z"/>
			<path class="st0" d="M462.2,43h16.5l-1.1,5.5h-10.3l-2.4,12.3h8.9l-1.1,5.5h-8.9l-2.5,12.6h10.3l-1.1,5.5h-16.5L462.2,43z"/>
			<path class="st0" d="M484.3,43h5.6l3.3,21.4L504.9,43h5.6l-8.3,41.4h-6.2l5.1-25.7l-8.6,16.4h-3.4l-1.9-16.6l-5.2,25.8H476
				L484.3,43z"/>
			<path class="st0" d="M517.3,43h6.2l-5,24.9L532.6,43h5.2l-8.3,41.4h-6.2l4.9-24.8l-13.8,24.8h-5.4L517.3,43z"/>
			<path class="st0" d="M544.6,43h5.6l3.3,21.4L565.3,43h5.6l-8.3,41.4h-6.2l5.1-25.7L553,75.2h-3.4l-1.9-16.6l-5.2,25.8h-6.2
				L544.6,43z"/>
			<path class="st0" d="M572.5,63.7c2.6-12.6,3.8-15.7,6.4-18.2c2-2,4.3-2.9,7.7-2.9c3,0,5.4,0.9,6.9,2.7c1.1,1.4,1.7,3.7,1.7,5.8
				c0,0.9,0,1.6-0.2,2.7h-6.2c0.2-0.9,0.2-1.6,0.2-2.3c0-1.9-0.6-3.4-2.9-3.4c-1.3,0-2.2,0.4-3,1.2c-1.6,1.7-2.4,4.2-4.5,14.4
				c-1,5.3-1.7,9.6-1.7,12.1c0,2.3,0.9,3.5,3,3.5c1.5,0,2.4-0.6,3.2-1.5c0.9-1.1,1.5-2.4,1.9-4.2h6.2c-0.9,4.2-2.1,6.8-4.5,8.9
				c-1.8,1.6-3.9,2.4-7.4,2.4c-3.6,0-5.8-1.2-7.1-3.3c-1-1.7-1.4-3.2-1.4-5.7S571.4,69.3,572.5,63.7z"/>
			<path class="st0" d="M602.1,65.8c-2.3-1.5-3-3.8-3-6.6c0-1,0.2-2.3,0.5-4c2-10.1,5.2-12.2,12.4-12.2h9.9l-8.3,41.4h-6.2l3.5-17.2
				h-3.3l-8.8,17.2h-6.7L602.1,65.8z M605.4,58.4c0,2.5,1,3.5,3.5,3.5h3.2l2.7-13.4h-3.3c-3.2,0-4.6,1.6-5.6,6.7
				C605.6,56.3,605.4,57.4,605.4,58.4z"/>
			<path class="st0" d="M380.6,100.9h6.2l-8.3,41.4h-6.2L380.6,100.9z M382.8,121l12.7-20.1h6.9l-13.1,20l5.5,21.3H388L382.8,121z"
				/>
			<path class="st0" d="M417.2,100.9h18.2l-1.1,5.5h-12.1l-2.1,10.6h3.3c3.3,0,5.2,0.7,6.7,2.2c1.4,1.4,1.9,3.4,1.9,5.6
				c0,1.5-0.2,3.3-0.5,4.8c-2,10.2-5.9,12.6-12.2,12.6h-10.4L417.2,100.9z M419.6,136.8c3.2,0,4.6-1.8,5.8-7.1
				c0.2-1.1,0.4-2.6,0.4-3.7c0-2.3-0.9-3.5-3.5-3.5H419l-2.8,14.2H419.6z"/>
			<path class="st0" d="M444,103.3c2-2,4.4-2.8,7.7-2.8c3.7,0,6,1.3,7.3,3.4c1,1.6,1.4,3.1,1.4,5.5c0,2.6-0.6,6.6-1.8,12.2
				c-2.6,12.6-3.7,15.7-6.4,18.3c-2,2-4.3,2.8-7.6,2.8c-3.8,0-6-1.3-7.3-3.4c-1-1.6-1.3-3.1-1.3-5.5c0-2.6,0.6-6.6,1.7-12.2
				C440.3,109,441.4,105.9,444,103.3z M454.2,109.6c0-2.1-0.8-3.6-3.1-3.6c-1.2,0-2.1,0.4-2.9,1.2c-1.5,1.5-2.4,4.2-4.4,14.4
				c-1,5.2-1.8,9.6-1.8,12c0,2.1,0.8,3.6,3.1,3.6c1.2,0,2.1-0.4,2.9-1.2c1.5-1.5,2.4-4.2,4.4-14.4
				C453.4,116.4,454.2,112,454.2,109.6z"/>
			<path class="st0" d="M457.6,136.8h0.6c3.4,0,5.6-2.1,7.7-12.9l4.6-23h18.7l-8.3,41.4h-6.2l7.1-35.9h-6.6l-3.5,17.7
				c-3.1,15.8-6.3,18.2-13.5,18.2h-1.9L457.6,136.8z"/>
			<path class="st0" d="M496.1,100.9h6.2l-3.2,16.1h3.3c3.3,0,5.2,0.7,6.7,2.2c1.4,1.4,1.9,3.4,1.9,5.6c0,1.5-0.2,3.3-0.5,4.8
				c-2,10.2-5.9,12.6-12.2,12.6h-10.4L496.1,100.9z M498.6,136.8c3.2,0,4.6-1.8,5.8-7.1c0.2-1.1,0.4-2.6,0.4-3.7
				c0-2.3-0.9-3.5-3.5-3.5H498l-2.8,14.2H498.6z"/>
			<path class="st0" d="M521.8,100.9h6.2l-7.1,35.9h6.8l7.1-35.9h6.2l-7.1,35.9h6.8l7.1-35.9h6.2l-8.3,41.4h-32.1L521.8,100.9z"/>
			<path class="st0" d="M560.7,100.9h16.5l-1.1,5.5h-10.3l-2.4,12.3h8.9l-1.1,5.5h-8.9l-2.5,12.6h10.3l-1.1,5.5h-16.5L560.7,100.9z"
				/>
			<path class="st0" d="M582.8,100.9h5.6l3.3,21.4l11.9-21.4h5.6l-8.3,41.4h-6.2l5.1-25.7l-8.6,16.4h-3.4l-1.9-16.6l-5.2,25.8h-6.2
				L582.8,100.9z"/>
			<path class="st0" d="M607.9,136.8c3.4,0,4.9-0.9,6.3-4.2l1.6-3.7l-3-27.9h6.3l1.1,19.5l8.9-19.5h6.6L619,134.4
				c-3.2,6.4-4.5,8-12.1,8L607.9,136.8z"/>
			<path class="st0" d="M633.7,135.2h6.7l-1.4,7.1h-6.7L633.7,135.2z M640.6,100.9h6.6l-6.2,29.9h-5.8L640.6,100.9z"/>
		</g>
		<g>
			<path class="st1" d="M244,86.5c1.2,0,2.1-0.9,2.1-2l0-0.1V51.2v-0.1l0-0.2c-0.1-1-1-1.7-2.1-1.7c-1.1,0-2,0.8-2.1,1.7v0.2v0.1
				v33.3l0,0.1C241.9,85.7,242.8,86.5,244,86.5 M248,43c6.7,0,7.1,5.4,7.1,8.9v31.9c0,3.5-0.4,8.9-7.1,8.9h-7.9
				c-6.7,0-7.1-5.4-7.1-8.9V51.9c0-3.5,0.4-8.9,7.1-8.9H248 M99.3,43h18.2v6.2h-8.7v43.5h-9.5V43z M123.9,43h15l5,49.7h-9.3
				l-0.9-13.2h-4.5l-0.9,13.2h-9.3L123.9,43z M133.3,74l-1.6-24.8h-0.5L129.5,74H133.3z M157.5,75.3v9.3c0,1.3,0.9,1.6,1.5,1.6
				c0.9,0,1.5-0.8,1.5-1.6V73.1c0-1.6-0.3-3.3-3.8-3.3h-3.9v-5.5h4c2.7,0,3.7-0.7,3.7-3.7v-9.9c0-0.9-0.6-1.6-1.5-1.6
				c-0.6,0-1.5,0.4-1.5,1.6v8.1h-9.6v-7c0-3.5,0.4-8.9,7.1-8.9h7.9c6.7,0,7.1,5.4,7.1,8.9v8c0,5.4-3.6,6.9-6.5,6.7v0.5
				c6.4-0.2,6.5,5,6.5,6.7v10c0,3.5-0.4,8.9-7.1,8.9H155c-6.7,0-7.1-5.4-7.1-8.9v-8.5H157.5z M176.3,43h22.1v49.7h-8.9V49.2h-4.3
				v43.5h-8.9V43z M205.3,43h15c6.7,0,7.7,5.4,7.7,8.9v15c0,3.5-1.1,8.9-7.7,8.9h-5.5v16.9h-9.5V43z M217.3,70.3
				c1,0,1.8-0.9,1.8-2.5V51.7c0-1.6-0.7-2.5-1.8-2.5h-2.5v21.1H217.3z M285.5,43h12.4v49.7h-9.6V61.5H288l-4.9,31.1h-7.6l-4.9-31.1
				h-0.3v31.1h-9.6V43h12.4l6.2,34.9L285.5,43z M79,48.1c0.1-5-0.4-13.6-2.8-22.5c-2.5-8.9-7.2-17.4-8-18.5c-0.7,1.1-4.5,8-7.8,18.8
				c-0.9,3.2-2.5,10.2-2.7,17.1c-0.3,8.3,0.8,16.5,1.3,18.8c0-2.7,0.1-11.9,1.8-19.4c1.7-7.6,4.9-16.3,7.6-20.7
				c2.8,4.7,6.4,14.7,7.7,20.7c1.3,6,1.9,13.7,1.7,19.2C78.2,58.4,78.8,53.1,79,48.1 M68.2,86.6c1.5-2.8,4.2-9.1,3.9-17
				c-0.3-8.1-3.1-14-3.9-15.4c-0.9,1.4-4.1,8.2-4.1,16.2C64.4,78.5,66.7,83.8,68.2,86.6 M79.8,25.7c3,13.2,2.9,21.3,1.6,30.5
				c-2.4,16.7-9.9,29.4-13.2,33.7c-2.2-2.9-5.7-8.8-8-14.3c0,0-4.3-10.5-5.5-20.7c-1.1-10.2-0.7-20.6,2.7-32.4
				c3.1-10.5,9.1-20,10.7-22.4C69.3,1.7,76.8,12.5,79.8,25.7 M86,92.7v34c-9.1,9.6-22,15.7-36.3,15.7C22.3,142.3,0,120.1,0,92.8
				c0-27.3,22.3-49.5,49.7-49.5v37.2c-7.1,0-14.3,2.7-19.7,8.1c-1.3,1.3-2.4,2.7-3.4,4.1c-7.3,10.8-6.2,25.6,3.4,35.2
				c5.4,5.4,12.6,8.1,19.7,8.1c7.1,0,14.2-2.7,19.7-8.1c0,0,0.1,0,0.1-0.1v0l0.1-0.1c5.5-5.4,5.5-14.3,0-19.7
				c-5.5-5.4-14.3-5.4-19.8,0c0,0-0.1,0-0.1,0.1V92.7H86z M289,128.4c0-4.3-1.8-5.5-6.8-5.5h-0.8v-8.3h-5v21.6h5
				c5.5,0,7.6-0.8,7.6-5.6V128.4z M247,114.6h-12.7v4.1h4.1v17.5h4.8v-17.5h3.8V114.6z M208.2,121.7c0-4.4-2.1-5.5-7.2-5.5v-1.6
				h-4.9v1.6c-5.1,0-7.2,1.1-7.2,5.5v6.7c0,4.4,2.3,5.6,7.2,5.6v2.1h4.9V134c5,0,7.2-1.2,7.2-5.6V121.7z M162.6,114.6h-12.1v21.6
				h12.1v-4.1h-6.9V127h6.2v-4.1h-6.2v-4.2h6.9V114.6z M120.9,114.6h-5v8.3h-2.6v-8.3h-5v21.6h5v-9.4h2.6v9.4h5V114.6z M297.9,142.3
				H99.3v-33.1h198.6V142.3z M193.8,121.6c0-1.3,0.4-1.6,1.5-1.6h0.8v10h-0.8c-1.1,0-1.5-0.3-1.5-1.6V121.6 M282.5,126.7
				c1.1,0,1.5,0.3,1.5,1.5v2.6c0,1.2-0.3,1.5-1.5,1.5h-1.1v-5.6H282.5 M201.8,120c1.1,0,1.5,0.2,1.5,1.5v6.9c0,1.3-0.4,1.6-1.5,1.6
				h-0.8v-10H201.8"/>
			<path class="st1" d="M285.5,43h12.4v49.7h-9.6V61.5H288l-4.9,31.1h-7.6l-4.9-31.1h-0.3v31.1h-9.6V43h12.4l6.2,34.9L285.5,43z"/>
		</g>
		<polygon class="st0" points="335.1,39.8 345.7,92.7 335.1,145.6 340,145.6 350.6,92.7 340,39.8 		"/>
	</g>
</g>
</svg>
