<?xml version="1.0" encoding="utf-8"?>
<!-- Generator: Adobe Illustrator 21.0.2, SVG Export Plug-In . SVG Version: 6.00 Build 0)  -->
<svg version="1.1" id="Слой_1" xmlns="http://www.w3.org/2000/svg" xmlns:xlink="http://www.w3.org/1999/xlink" x="0px" y="0px"
	 viewBox="0 0 69.5 69.5" style="enable-background:new 0 0 69.5 69.5;" xml:space="preserve">
<style type="text/css">
	.st0{fill:#137BBF;stroke:#137BBF;stroke-width:1.4173;stroke-miterlimit:10;}
</style>
<g>
	<path class="st0" d="M2.7,68.8c0.2,0,0.4,0,0.6-0.1l20.9-6.1c1-0.3,1.9-0.8,2.6-1.5L65,22.9c5.1-5.1,5.1-13.3,0-18.4
		s-13.3-5.1-18.4,0L8.4,42.7c-0.7,0.7-1.2,1.6-1.5,2.6L0.8,66.2c-0.2,0.7,0,1.5,0.5,2C1.7,68.6,2.2,68.8,2.7,68.8z M25.2,57
		L12.6,44.3l0,0l31.1-31.1c0,0,0,0,0,0.1L56.4,26L25.2,57z M49.4,7.4c1.8-1.8,4.1-2.6,6.4-2.6s4.6,0.9,6.4,2.6
		c3.5,3.5,3.5,9.2,0,12.7l-3,2.9L46.5,10.4c0,0,0,0-0.1,0L49.4,7.4z M10.3,47.7l11.4,11.4L5.6,63.8L10.3,47.7z"/>
</g>
</svg>
