<svg xmlns="http://www.w3.org/2000/svg" viewBox="0 0 174.38 83.31">
    <defs>
        <style>.cls-1{fill:#ffffff;}</style>
    </defs>
    <path class="cls-1" d="M142.85,50.66a1.2,1.2,0,0,1-1.24-1.15V29.81a1.25,1.25,0,0,1,2.46,0V49.46s0,0,0,0a1.2,1.2,0,0,1-1.23,1.15m2.31-25.48h-4.62c-3.91,0-4.14,3.16-4.14,5.19V49.06c0,2,.23,5.2,4.14,5.2h4.63c3.91,0,4.15-3.16,4.15-5.2V30.38c0-2-.24-5.19-4.15-5.19"/>
    <polygon class="cls-1" points="58.13 25.19 68.78 25.19 68.78 28.8 63.71 28.8 63.71 54.26 58.13 54.26 58.13 25.19"/>
    <path class="cls-1" d="M69.6,54.26h5.46l.52-7.73h2.63l.52,7.73H84.2L81.28,25.19H72.51Zm6.18-10.92,1-14.54h.32l1,14.54Z"/>
    <path class="cls-1" d="M92.19,44.07v5.47a.88.88,0,0,0,.88,1,.92.92,0,0,0,.88-1V42.79c0-.91-.16-1.91-2.24-1.91H89.44v-3.2h2.35c1.6,0,2.16-.38,2.16-2.16V29.74a.91.91,0,0,0-.88-.95.87.87,0,0,0-.88.95v4.74H86.61V30.38c0-2,.24-5.19,4.14-5.19h4.63c3.91,0,4.15,3.16,4.15,5.19V35c0,3.15-2.11,4-3.79,3.94v.29c3.75-.09,3.79,2.9,3.79,3.95v5.85c0,2-.23,5.2-4.15,5.2H90.75c-3.91,0-4.14-3.16-4.14-5.2v-5Z"/>
    <polygon class="cls-1" points="103.2 25.19 116.12 25.19 116.12 54.26 110.92 54.26 110.92 28.8 108.41 28.8 108.41 54.26 103.2 54.26 103.2 25.19"/>
    <path class="cls-1" d="M120.17,54.26h5.58V44.37h3.19c3.91,0,4.53-3.16,4.53-5.19v-8.8c0-2-.62-5.19-4.53-5.19h-8.77Zm5.58-13.09V28.8h1.47c.6,0,1,.54,1,1.45v9.48c0,.91-.44,1.44-1,1.44Z"/>
    <polygon class="cls-1" points="167.12 25.19 174.38 25.19 174.38 54.26 168.79 54.26 168.79 36.02 168.6 36.02 165.72 54.26 161.26 54.26 158.39 36.02 158.19 36.02 158.19 54.26 152.6 54.26 152.6 25.19 159.86 25.19 163.48 45.62 167.12 25.19"/>
    <path class="cls-1" d="M46.22,28.14a42.06,42.06,0,0,1-.87,7.91,49.22,49.22,0,0,0-1-11.25A48.86,48.86,0,0,0,39.9,12.66a48.53,48.53,0,0,0-4.42,12.11,56.89,56.89,0,0,0-1,11.38,56.67,56.67,0,0,1-.74-11,48.6,48.6,0,0,1,1.6-10,53.66,53.66,0,0,1,4.58-11A49.12,49.12,0,0,1,44.55,15a48.44,48.44,0,0,1,1.67,13.17M39.93,50.7a21.11,21.11,0,0,1-2.34-9.54A20,20,0,0,1,40,31.7a21.53,21.53,0,0,1,2.28,9,20.42,20.42,0,0,1-2.31,10M46.73,15C45,7.31,40.55,1,39.93,0a52.21,52.21,0,0,0-6.28,13.14,47.61,47.61,0,0,0-1.57,18.94,52.32,52.32,0,0,0,3.2,12.14A42.42,42.42,0,0,0,40,52.62a45.41,45.41,0,0,0,7.73-19.7c.77-5.41.8-10.16-1-17.88"/>
    <path class="cls-1" d="M29.11,54.25v9.14l0,0a8.21,8.21,0,0,1,11.57,0,8.12,8.12,0,0,1,0,11.52l0,0h0l0,0A16.32,16.32,0,0,1,15.55,54.32a15.84,15.84,0,0,1,2-2.42,16.33,16.33,0,0,1,11.56-4.76V25.34a29,29,0,1,0,21.24,48.8V54.25Z"/>
    <path class="cls-1" d="M169.17,76.45c0,2.77-1.26,3.25-4.46,3.25h-2.95V67.08h2.95V72h.49c2.89,0,4,.67,4,3.2Zm-24.6-7h-2.23V79.71h-2.8V69.47h-2.4v-2.4h7.43ZM121.9,75.2c0,2.56-1.31,3.25-4.21,3.25V79.7h-2.86V78.45c-2.91,0-4.23-.69-4.23-3.25V71.26c0-2.58,1.26-3.23,4.23-3.23v-.94h2.86V68c2.95,0,4.21.66,4.21,3.23ZM95.19,69.47h-4v2.48h3.61v2.4H91.15v3h4v2.4H88.11V67.07h7.07ZM70.75,79.7H67.8V74.18H66.28V79.7H63.34V67.08h2.94V72H67.8V67.08h2.94ZM174.38,63.93H58.13V83.31H174.38Zm-60.91,7.24v4c0,.74.24.91.89.91h.47V70.25h-.47c-.66,0-.89.19-.89.93m51.89,3h-.65v3.3h.65c.66,0,.86-.17.86-.9V75.06c0-.72-.2-.89-.86-.89m-47.21-3.93h-.45v5.88h.45c.66,0,.89-.18.89-.93V71.14c0-.74-.24-.89-.89-.89"/>
</svg>